<?xml version="1.0" encoding="UTF-8"?>
<svg xmlns="http://www.w3.org/2000/svg" xmlns:xlink="http://www.w3.org/1999/xlink" width="200px" height="200px" viewBox="0 0 200 200" version="1.1">
<g id="surface1">
<path style=" stroke:none;fill-rule:nonzero;fill:rgb(0%,0%,0%);fill-opacity:1;" d="M 93.457031 0.15625 C 93.027344 0.195312 91.660156 0.332031 90.429688 0.429688 C 62.054688 2.988281 35.476562 18.300781 18.640625 41.832031 C 9.265625 54.917969 3.269531 69.757812 1.003906 85.480469 C 0.203125 90.96875 0.105469 92.589844 0.105469 100.027344 C 0.105469 107.46875 0.203125 109.089844 1.003906 114.578125 C 6.433594 152.09375 33.132812 183.613281 69.339844 195.292969 C 75.824219 197.382812 82.65625 198.808594 90.429688 199.667969 C 93.457031 200 106.542969 200 109.570312 199.667969 C 122.984375 198.183594 134.351562 194.863281 145.5625 189.140625 C 147.28125 188.261719 147.613281 188.027344 147.378906 187.832031 C 147.222656 187.714844 139.898438 177.894531 131.109375 166.019531 L 115.136719 144.4375 L 95.117188 114.8125 C 84.101562 98.527344 75.042969 85.207031 74.964844 85.207031 C 74.886719 85.1875 74.808594 98.351562 74.769531 114.421875 C 74.710938 142.5625 74.691406 143.695312 74.339844 144.359375 C 73.832031 145.316406 73.441406 145.707031 72.621094 146.136719 C 71.996094 146.449219 71.449219 146.507812 68.5 146.507812 L 65.121094 146.507812 L 64.222656 145.941406 C 63.636719 145.570312 63.207031 145.082031 62.914062 144.515625 L 62.503906 143.636719 L 62.542969 104.480469 L 62.601562 65.304688 L 63.207031 64.542969 C 63.519531 64.132812 64.183594 63.605469 64.652344 63.351562 C 65.453125 62.960938 65.765625 62.921875 69.144531 62.921875 C 73.128906 62.921875 73.792969 63.078125 74.828125 64.210938 C 75.121094 64.523438 85.957031 80.851562 98.925781 100.515625 C 111.894531 120.183594 129.625 147.035156 138.335938 160.21875 L 154.15625 184.179688 L 154.957031 183.652344 C 162.042969 179.046875 169.542969 172.484375 175.480469 165.648438 C 188.117188 151.136719 196.261719 133.445312 198.996094 114.578125 C 199.796875 109.089844 199.894531 107.46875 199.894531 100.027344 C 199.894531 92.589844 199.796875 90.96875 198.996094 85.480469 C 193.566406 47.964844 166.867188 16.445312 130.660156 4.765625 C 124.273438 2.695312 117.480469 1.269531 109.863281 0.410156 C 107.988281 0.214844 95.078125 0 93.457031 0.15625 Z M 134.351562 60.578125 C 135.289062 61.046875 136.050781 61.945312 136.324219 62.882812 C 136.480469 63.390625 136.519531 74.25 136.480469 98.722656 L 136.421875 133.835938 L 130.230469 124.34375 L 124.019531 114.851562 L 124.019531 89.328125 C 124.019531 72.824219 124.097656 63.546875 124.214844 63.097656 C 124.527344 62.003906 125.210938 61.144531 126.148438 60.636719 C 126.949219 60.226562 127.242188 60.1875 130.308594 60.1875 C 133.199219 60.1875 133.707031 60.226562 134.351562 60.578125 Z M 134.351562 60.578125 "/>
<path style=" stroke:none;fill-rule:nonzero;fill:rgb(0%,0%,0%);fill-opacity:1;" d="M 153.179688 184.609375 C 152.496094 185.039062 152.28125 185.332031 152.886719 185 C 153.316406 184.746094 154.019531 184.21875 153.902344 184.199219 C 153.84375 184.199219 153.511719 184.394531 153.179688 184.609375 Z M 151.832031 185.488281 C 151.480469 185.761719 151.480469 185.78125 151.910156 185.566406 C 152.144531 185.449219 152.339844 185.3125 152.339844 185.273438 C 152.339844 185.117188 152.242188 185.15625 151.832031 185.488281 Z M 150.855469 186.074219 C 150.503906 186.347656 150.503906 186.367188 150.933594 186.152344 C 151.167969 186.035156 151.363281 185.898438 151.363281 185.859375 C 151.363281 185.703125 151.265625 185.742188 150.855469 186.074219 Z M 149.878906 186.660156 C 149.527344 186.933594 149.527344 186.953125 149.957031 186.738281 C 150.191406 186.621094 150.386719 186.484375 150.386719 186.445312 C 150.386719 186.289062 150.289062 186.328125 149.878906 186.660156 Z M 148.394531 187.441406 C 147.652344 187.832031 147.691406 187.988281 148.433594 187.617188 C 148.765625 187.441406 149.019531 187.265625 149.019531 187.226562 C 149.019531 187.089844 149 187.109375 148.394531 187.441406 Z M 148.394531 187.441406 "/>
</g>
</svg>
